<svg width="324" height="132" viewBox="0 0 324 132" fill="none" xmlns="http://www.w3.org/2000/svg">
<mask id="path-1-inside-1" fill="white">
<path d="M146.2 121.5C144.2 118.3 144.3 113.9 146.4 110.7C147.4 109.1 149 107.8 150.8 107.1C152.6 106.4 154.6 106.2 156.5 106.4C158.4 106.7 160.3 107.4 161.8 108.6C162.6 109.2 163.3 109.9 163.9 110.7C164.5 111.5 165 112.3 165.3 113.3C166.8 116.9 166.5 121.2 164.5 124.7C162.4 128.1 158.8 130.4 154.9 131C151 131.7 146.8 130.5 143.7 128C140.6 125.5 138.4 122 137.5 118.1C137 116.2 136.9 114.1 137.1 112.2C137.3 110.2 137.8 108.3 138.4 106.4C139.8 102.7 141.9 99.4 144.2 96.3C146.6 93.3 149.3 90.5 152.1 87.9C157.6 82.7 163.5 77.8 169.6 73.3C175.7 68.8 182.1 64.6 188.8 61C195.5 57.3 202.4 54.1 209.6 51.5C224 46.3 239.4 43.3 254.8 44.1C258.7 44.2 262.5 44.7 266.3 45.3C268.2 45.7 270.1 46 272 46.4C273.9 46.9 275.8 47.3 277.6 47.9L280.4 48.7C281.3 49 282.2 49.3 283.1 49.7C284 50 284.9 50.3 285.8 50.7L288.5 51.8C289.4 52.2 290.3 52.5 291.2 53C292.1 53.4 293 53.9 293.9 54.4L295.2 55.2L296.5 56.1C297.4 56.7 298.1 57.3 298.9 58C302 60.6 304.7 63.9 306.6 67.6C308.5 71.3 309.5 75.6 309.4 79.8C309.4 80.9 309.3 81.9 309.2 83C309 84 308.8 85.1 308.6 86.1C308.3 87.1 308 88.1 307.7 89.1C307.3 90.1 306.9 91 306.4 92C304.6 95.8 301.7 99.1 298.3 101.6C294.9 104.1 291.1 105.8 287.2 106.9C283.3 108 279.4 108.7 275.5 109C267.7 109.6 259.9 109.2 252.4 108.5C237.2 107.1 222.1 104.3 207.3 100.2C192.6 96.1 178.2 90.8 164.3 84.5C150.3 78 137.4 70 124.4 62.3C111.5 54.7 98.4 47.4 84.5 42.6C77.6 40.2 70.4 38.5 63.2 37.5C56 36.5 48.7 36.3 41.5 37C37.9 37.4 34.4 38 31 38.9C29.3 39.4 27.6 39.8 26.1 40.5C25.3 40.8 24.6 41.2 23.8 41.5C23.1 41.9 22.3 42.3 21.6 42.7C15.8 46.1 11.2 51.5 9.3 57.7C8.8 59.2 8.5 60.8 8.3 62.4C8.1 64 8.20001 65.6 8.40001 67.2C8.60001 68.8 9.00001 70.4 9.50001 71.9C10 73.4 10.7 74.9 11.6 76.3C13.3 79.1 15.5 81.8 18.1 83.9C20.7 86.1 23.5 87.9 26.6 89.3C29.7 90.7 33.1 91.6 36.5 92.2C38.2 92.5 40 92.7 41.7 92.8C43.5 92.9 45.2 93 47 92.9C54.1 92.8 61.3 91.6 68.4 89.6C70.2 89.1 72 88.7 73.7 88.2L78.9 86.5L81.5 85.6C82.4 85.3 83.2 84.9 84.1 84.6L89.3 82.6C91 81.9 92.7 81.1 94.4 80.4C96.1 79.6 97.8 78.9 99.4 78.1C102.7 76.4 106.1 74.8 109.3 73C122.4 65.9 135.1 57.8 147.8 49.7C160.5 41.6 173.3 33.4 186.8 26.1C200.3 18.9 214.5 12.8 229.3 8.49999C244.1 4.09999 259.3 1.49999 274.8 0.899988C282.6 0.699988 290.6 1.19999 298.4 3.69999C302.3 4.99999 306 6.79999 309.4 9.19999C312.8 11.6 315.9 14.5 318.3 18.1C319.5 19.9 320.5 21.7 321.3 23.8L321.9 25.3C322.1 25.8 322.2 26.3 322.3 26.8L322.7 28.4L323 30C323.7 34.2 323.4 38.5 322.4 42.6C320.5 50.7 315.9 58 309.7 63.4C303.4 68.8 295.9 72.1 288.2 74C280.5 75.9 272.6 76.4 264.8 76.1C249.3 75.5 234.1 72 219.7 66.9C205.2 61.9 191.5 55.4 177.9 48.8C164.3 42.2 150.8 35.5 136.9 29.8C123 24.2 108.7 19.7 93.9 17.7C86.5 16.7 79.1 16.2 71.7 16.6C64.3 17 56.9 18.2 50.1 20.7C43.3 23.3 36.9 27.4 32.4 33.1C30.2 36 28.2 39.1 27.1 42.5C25.9 45.9 25.5 49.6 25.8 53.2C26.2 56.8 27.3 60.3 29.3 63.3C31.2 66.3 34.1 68.8 37.4 70.2C40.7 71.7 44.4 72.2 48 71.5C51.6 70.9 54.9 69 57.2 66.2C59.4 63.4 60.5 59.6 60.2 56C59.9 52.4 58.2 48.7 55.3 46.5C52.4 44.2 48.3 43.4 44.9 45C44.1 45.4 43.2 45.9 42.6 46.5C41.9 47.1 41.3 47.8 40.9 48.7C40 50.3 39.9 52.3 40.3 54.2C39.8 52.4 39.9 50.4 40.7 48.7C41.1 47.8 41.7 47.1 42.4 46.4C43.1 45.7 43.9 45.2 44.8 44.8C48.3 43.1 52.7 43.8 55.7 46.1C58.9 48.4 60.7 52.2 61.2 56C61.7 59.9 60.6 63.9 58.3 67.1C56 70.3 52.3 72.4 48.5 73.1C44.7 73.9 40.6 73.5 36.9 71.9C33.3 70.4 30.1 67.8 27.9 64.5C25.7 61.2 24.3 57.4 23.9 53.5C23.5 49.6 23.8 45.6 25 41.8C26.1 38 28.2 34.6 30.5 31.5C32.9 28.4 35.7 25.6 38.9 23.4C42.1 21.1 45.6 19.3 49.2 17.9C56.4 15 64.1 13.7 71.8 13.1C79.5 12.6 87.2 12.9 94.7 13.8C102.3 14.7 109.8 16.3 117.2 18.3C124.6 20.3 131.8 22.8 138.9 25.5C153.1 31 166.8 37.6 180.4 44C194.1 50.4 207.7 56.6 221.8 61.4C235.9 66.2 250.5 69.4 265.2 69.8C272.5 70 279.8 69.5 286.8 67.7C293.7 65.9 300.3 62.9 305.5 58.3C310.6 53.8 314.4 47.6 315.9 41C316.7 37.7 316.8 34.3 316.3 31.1L316.1 29.9L315.8 28.7C315.7 28.3 315.6 27.9 315.5 27.5L315.1 26.4C314.5 24.9 313.7 23.4 312.8 22.1C309.1 16.7 303 12.7 296.5 10.6C289.9 8.5 282.6 8 275.3 8.3C260.6 8.9 245.9 11.6 231.7 15.9C217.5 20.2 203.8 26 190.7 33.1C177.6 40.2 164.9 48.3 152.3 56.4C139.6 64.6 126.8 72.8 113.4 80.1C110.1 82 106.6 83.6 103.2 85.4C101.5 86.3 99.7 87 98 87.8C96.2 88.6 94.5 89.4 92.7 90.1L87 92C86.1 92.3 85.2 92.7 84.3 93L81.5 93.9L76 95.7C74.1 96.2 72.3 96.7 70.4 97.2C62.9 99.3 55.1 100.6 47.1 100.7C45.1 100.8 43.1 100.7 41.1 100.6C39.1 100.4 37.1 100.2 35.1 99.8C31.1 99.1 27.1 98 23.3 96.3C19.5 94.6 16 92.3 12.8 89.6C9.6 86.9 6.90003 83.7 4.70003 80C3.60003 78.2 2.70001 76.2 2.00001 74.2C1.30001 72.2 0.800013 70 0.500013 67.9C-0.0999871 63.6 0.400025 59.2 1.70003 55.1C4.30002 46.8 10.3 40.1 17.5 35.8C18.4 35.2 19.3 34.8 20.2 34.3C21.2 33.9 22.1 33.4 23.1 33C25 32.2 27 31.6 28.9 31.1C32.8 30.1 36.7 29.4 40.6 29C48.5 28.3 56.4 28.5 64.1 29.6C71.8 30.7 79.4 32.5 86.8 35.1C101.5 40.3 114.9 47.9 127.9 55.7C140.9 63.5 153.6 71.5 167 77.8C180.5 84.1 194.5 89.3 208.9 93.4C223.2 97.5 237.9 100.4 252.7 101.9C260.1 102.7 267.5 103.1 274.8 102.6C278.4 102.3 282 101.8 285.4 100.8C288.8 99.8 292 98.5 294.7 96.5C297.4 94.5 299.6 92 301.1 89C302.6 86 303.6 82.7 303.6 79.3C303.7 76 302.9 72.7 301.5 69.6C300.1 66.5 297.9 63.8 295.3 61.6C294.6 61 294 60.5 293.3 60L292.2 59.2L291.1 58.5C290.4 58 289.6 57.6 288.8 57.2C288.1 56.8 287.2 56.4 286.3 56.1L283.8 55C282.9 54.7 282.1 54.3 281.2 54C280.3 53.7 279.5 53.3 278.6 53.1L276 52.3C274.3 51.7 272.5 51.3 270.7 50.8C268.9 50.4 267.1 50 265.3 49.6C261.7 49 258 48.5 254.3 48.3C239.6 47.3 224.7 49.9 210.6 54.8C203.6 57.3 196.7 60.3 190.1 63.7C183.5 67.2 177.1 71.2 171 75.5C164.9 79.8 159 84.5 153.5 89.6C150.7 92.1 148.1 94.7 145.7 97.5C143.4 100.3 141.3 103.4 140 106.8C139.4 108.5 138.9 110.2 138.7 112C138.5 113.8 138.6 115.6 139 117.3C139.7 120.8 141.6 124.1 144.4 126.3C147.1 128.6 150.8 129.7 154.3 129.1C157.8 128.6 161.2 126.6 163.2 123.6C165.1 120.6 165.5 116.6 164.2 113.2C163.9 112.4 163.4 111.5 162.9 110.8C162.4 110.1 161.7 109.4 161 108.8C159.6 107.7 157.8 106.9 156 106.6C154.2 106.3 152.3 106.4 150.6 107.1C148.9 107.7 147.4 109 146.3 110.5C144.5 113.9 144.3 118.2 146.2 121.5Z"/>
</mask>
<path d="M146.2 121.5C144.2 118.3 144.3 113.9 146.4 110.7C147.4 109.1 149 107.8 150.8 107.1C152.6 106.4 154.6 106.2 156.5 106.4C158.4 106.7 160.3 107.4 161.8 108.6C162.6 109.2 163.3 109.9 163.9 110.7C164.5 111.5 165 112.3 165.3 113.3C166.8 116.9 166.5 121.2 164.5 124.7C162.4 128.1 158.8 130.4 154.9 131C151 131.7 146.8 130.5 143.7 128C140.6 125.5 138.4 122 137.5 118.1C137 116.2 136.9 114.1 137.1 112.2C137.3 110.2 137.8 108.3 138.4 106.4C139.8 102.7 141.9 99.4 144.2 96.3C146.6 93.3 149.3 90.5 152.1 87.9C157.6 82.7 163.5 77.8 169.6 73.3C175.7 68.8 182.1 64.6 188.8 61C195.5 57.3 202.4 54.1 209.6 51.5C224 46.3 239.4 43.3 254.8 44.1C258.7 44.2 262.5 44.7 266.3 45.3C268.2 45.7 270.1 46 272 46.4C273.9 46.9 275.8 47.3 277.6 47.9L280.4 48.7C281.3 49 282.2 49.3 283.1 49.7C284 50 284.9 50.3 285.8 50.7L288.5 51.8C289.4 52.2 290.3 52.5 291.2 53C292.1 53.4 293 53.9 293.9 54.4L295.2 55.2L296.5 56.1C297.4 56.7 298.1 57.3 298.9 58C302 60.6 304.7 63.9 306.6 67.6C308.5 71.3 309.5 75.6 309.4 79.8C309.4 80.9 309.3 81.9 309.2 83C309 84 308.8 85.1 308.6 86.1C308.3 87.1 308 88.1 307.7 89.1C307.3 90.1 306.9 91 306.4 92C304.6 95.8 301.7 99.1 298.3 101.6C294.9 104.1 291.1 105.8 287.2 106.9C283.3 108 279.4 108.7 275.5 109C267.7 109.6 259.9 109.2 252.4 108.5C237.2 107.1 222.1 104.3 207.3 100.2C192.6 96.1 178.2 90.8 164.3 84.5C150.3 78 137.4 70 124.4 62.3C111.5 54.7 98.4 47.4 84.5 42.6C77.6 40.2 70.4 38.5 63.2 37.5C56 36.5 48.7 36.3 41.5 37C37.9 37.4 34.4 38 31 38.9C29.3 39.4 27.6 39.8 26.1 40.5C25.3 40.8 24.6 41.2 23.8 41.5C23.1 41.9 22.3 42.3 21.6 42.7C15.8 46.1 11.2 51.5 9.3 57.7C8.8 59.2 8.5 60.8 8.3 62.4C8.1 64 8.20001 65.6 8.40001 67.2C8.60001 68.8 9.00001 70.4 9.50001 71.9C10 73.4 10.7 74.9 11.6 76.3C13.3 79.1 15.5 81.8 18.1 83.9C20.7 86.1 23.5 87.9 26.6 89.3C29.7 90.7 33.1 91.6 36.5 92.2C38.2 92.5 40 92.7 41.7 92.8C43.5 92.9 45.2 93 47 92.9C54.1 92.8 61.3 91.6 68.4 89.6C70.2 89.1 72 88.7 73.7 88.2L78.9 86.5L81.5 85.6C82.4 85.3 83.2 84.9 84.1 84.6L89.3 82.6C91 81.9 92.7 81.1 94.4 80.4C96.1 79.6 97.8 78.9 99.4 78.1C102.7 76.4 106.1 74.8 109.3 73C122.4 65.9 135.1 57.8 147.8 49.7C160.5 41.6 173.3 33.4 186.8 26.1C200.3 18.9 214.5 12.8 229.3 8.49999C244.1 4.09999 259.3 1.49999 274.8 0.899988C282.6 0.699988 290.6 1.19999 298.4 3.69999C302.3 4.99999 306 6.79999 309.4 9.19999C312.8 11.6 315.9 14.5 318.3 18.1C319.5 19.9 320.5 21.7 321.3 23.8L321.9 25.3C322.1 25.8 322.2 26.3 322.3 26.8L322.7 28.4L323 30C323.7 34.2 323.4 38.5 322.4 42.6C320.5 50.7 315.9 58 309.7 63.4C303.4 68.8 295.9 72.1 288.2 74C280.5 75.9 272.6 76.4 264.8 76.1C249.3 75.5 234.1 72 219.7 66.9C205.2 61.9 191.5 55.4 177.9 48.8C164.3 42.2 150.8 35.5 136.9 29.8C123 24.2 108.7 19.7 93.9 17.7C86.5 16.7 79.1 16.2 71.7 16.6C64.3 17 56.9 18.2 50.1 20.7C43.3 23.3 36.9 27.4 32.4 33.1C30.2 36 28.2 39.1 27.1 42.5C25.9 45.9 25.5 49.6 25.8 53.2C26.2 56.8 27.3 60.3 29.3 63.3C31.2 66.3 34.1 68.8 37.4 70.2C40.7 71.7 44.4 72.2 48 71.5C51.6 70.9 54.9 69 57.2 66.2C59.4 63.4 60.5 59.6 60.2 56C59.9 52.4 58.2 48.7 55.3 46.5C52.4 44.2 48.3 43.4 44.9 45C44.1 45.4 43.2 45.9 42.6 46.5C41.9 47.1 41.3 47.8 40.9 48.7C40 50.3 39.9 52.3 40.3 54.2C39.8 52.4 39.9 50.4 40.7 48.7C41.1 47.8 41.7 47.1 42.4 46.4C43.1 45.7 43.9 45.2 44.8 44.8C48.3 43.1 52.7 43.8 55.7 46.1C58.9 48.4 60.7 52.2 61.2 56C61.7 59.9 60.6 63.9 58.3 67.1C56 70.3 52.3 72.4 48.5 73.1C44.7 73.9 40.6 73.5 36.9 71.9C33.3 70.4 30.1 67.8 27.9 64.5C25.7 61.2 24.3 57.4 23.9 53.5C23.5 49.6 23.8 45.6 25 41.8C26.1 38 28.2 34.6 30.5 31.5C32.9 28.4 35.7 25.6 38.9 23.4C42.1 21.1 45.6 19.3 49.2 17.9C56.4 15 64.1 13.7 71.8 13.1C79.5 12.6 87.2 12.9 94.7 13.8C102.3 14.7 109.8 16.3 117.2 18.3C124.6 20.3 131.8 22.8 138.9 25.5C153.1 31 166.8 37.6 180.4 44C194.1 50.4 207.7 56.6 221.8 61.4C235.9 66.2 250.5 69.4 265.2 69.8C272.5 70 279.8 69.5 286.8 67.7C293.7 65.9 300.3 62.9 305.5 58.3C310.6 53.8 314.4 47.6 315.9 41C316.7 37.7 316.8 34.3 316.3 31.1L316.1 29.9L315.8 28.7C315.7 28.3 315.6 27.9 315.5 27.5L315.1 26.4C314.5 24.9 313.7 23.4 312.8 22.1C309.1 16.7 303 12.7 296.5 10.6C289.9 8.5 282.6 8 275.3 8.3C260.6 8.9 245.9 11.6 231.7 15.9C217.5 20.2 203.8 26 190.7 33.1C177.6 40.2 164.9 48.3 152.3 56.4C139.6 64.6 126.8 72.8 113.4 80.1C110.1 82 106.6 83.6 103.2 85.4C101.5 86.3 99.7 87 98 87.8C96.2 88.6 94.5 89.4 92.7 90.1L87 92C86.1 92.3 85.2 92.7 84.3 93L81.5 93.9L76 95.7C74.1 96.2 72.3 96.7 70.4 97.2C62.9 99.3 55.1 100.6 47.1 100.7C45.1 100.8 43.1 100.7 41.1 100.6C39.1 100.4 37.1 100.2 35.1 99.8C31.1 99.1 27.1 98 23.3 96.3C19.5 94.6 16 92.3 12.8 89.6C9.6 86.9 6.90003 83.7 4.70003 80C3.60003 78.2 2.70001 76.2 2.00001 74.2C1.30001 72.2 0.800013 70 0.500013 67.9C-0.0999871 63.6 0.400025 59.2 1.70003 55.1C4.30002 46.8 10.3 40.1 17.5 35.8C18.4 35.2 19.3 34.8 20.2 34.3C21.2 33.9 22.1 33.4 23.1 33C25 32.2 27 31.6 28.9 31.1C32.8 30.1 36.7 29.4 40.6 29C48.5 28.3 56.4 28.5 64.1 29.6C71.8 30.7 79.4 32.5 86.8 35.1C101.5 40.3 114.9 47.9 127.9 55.7C140.9 63.5 153.6 71.5 167 77.8C180.5 84.1 194.5 89.3 208.9 93.4C223.2 97.5 237.9 100.4 252.7 101.9C260.1 102.7 267.5 103.1 274.8 102.6C278.4 102.3 282 101.8 285.4 100.8C288.8 99.8 292 98.5 294.7 96.5C297.4 94.5 299.6 92 301.1 89C302.6 86 303.6 82.7 303.6 79.3C303.7 76 302.9 72.7 301.5 69.6C300.1 66.5 297.9 63.8 295.3 61.6C294.6 61 294 60.5 293.3 60L292.2 59.2L291.1 58.5C290.4 58 289.6 57.6 288.8 57.2C288.1 56.8 287.2 56.4 286.3 56.1L283.8 55C282.9 54.7 282.1 54.3 281.2 54C280.3 53.7 279.5 53.3 278.6 53.1L276 52.3C274.3 51.7 272.5 51.3 270.7 50.8C268.9 50.4 267.1 50 265.3 49.6C261.7 49 258 48.5 254.3 48.3C239.6 47.3 224.7 49.9 210.6 54.8C203.6 57.3 196.7 60.3 190.1 63.7C183.5 67.2 177.1 71.2 171 75.5C164.9 79.8 159 84.5 153.5 89.6C150.7 92.1 148.1 94.7 145.7 97.5C143.4 100.3 141.3 103.4 140 106.8C139.4 108.5 138.9 110.2 138.7 112C138.5 113.8 138.6 115.6 139 117.3C139.7 120.8 141.6 124.1 144.4 126.3C147.1 128.6 150.8 129.7 154.3 129.1C157.8 128.6 161.2 126.6 163.2 123.6C165.1 120.6 165.5 116.6 164.2 113.2C163.9 112.4 163.4 111.5 162.9 110.8C162.4 110.1 161.7 109.4 161 108.8C159.6 107.7 157.8 106.9 156 106.6C154.2 106.3 152.3 106.4 150.6 107.1C148.9 107.7 147.4 109 146.3 110.5C144.5 113.9 144.3 118.2 146.2 121.5Z" fill="#E37F7A" fill-opacity="0.3" stroke="#E37F7A" stroke-opacity="0.3" stroke-width="2" mask="url(#path-1-inside-1)"/>
</svg>
