<svg width="330" height="129" viewBox="0 0 330 129" fill="none" xmlns="http://www.w3.org/2000/svg">
<path d="M22.4 103.4C24.6 104 27 104.1 29.2 103.6C31.4 103.1 33.5 102 35.2 100.5C38.7 97.6 40.5 92.9 40.1 88.5C39.9 86.3 39.1 84.1 38 82.2C36.9 80.3 35.4 78.6 33.6 77.3C30 74.7 25.4 73.7 21 74.2C16.6 74.7 12.5 76.8 9.40001 80C7.80001 81.5 6.50001 83.3 5.60001 85.3C4.60001 87.3 3.90001 89.3 3.60001 91.5C3.30001 93.7 3.2 95.9 3.4 98C3.7 100.2 4.2 102.3 4.9 104.4C5.7 106.5 6.70001 108.4 7.90001 110.2C9.20001 112 10.6 113.7 12.2 115.1C18.7 121 27.6 124 36.4 124.4C45.3 124.7 54.2 122.7 62.6 119.5C66.8 117.9 70.9 116 75 114C79.1 112 83 109.8 86.9 107.4C94.7 102.7 102.1 97.4 109.2 91.7C123.5 80.4 136.6 67.6 150.2 55.2C163.8 42.8 177.9 30.6 193.7 20.7C201.6 15.7 210 11.5 218.8 8.10001C227.6 4.80001 236.7 2.30001 246.1 1.20001C255.5 0.10001 265.1 0.30001 274.5 2.20001C275.7 2.40001 276.8 2.80001 278 3.00001C279.2 3.30001 280.3 3.50001 281.5 3.90001L284.9 5.00001L286.6 5.60001L288.3 6.30001C290.5 7.20001 292.7 8.10001 294.8 9.30001C295.9 9.90001 296.9 10.4 298 11L301 13C309 18.3 315.6 25.7 320.5 34C321.2 35 321.7 36.1 322.2 37.2C322.7 38.3 323.3 39.3 323.8 40.4C324.7 42.6 325.7 44.8 326.3 47.2C326.6 48.4 327 49.5 327.3 50.7L328.1 54.2L328.5 56L328.7 57.8L329.2 61.4C329.5 66.2 329.5 71 328.8 75.8C328.6 77 328.5 78.2 328.2 79.4L327.4 82.9C326.9 85.3 326.1 87.6 325.2 89.8C323.4 94.3 321.1 98.5 318.3 102.5C315.5 106.4 312.2 110 308.6 113.2C301.4 119.5 292.7 124.3 283.2 126.5C280.9 127.1 278.4 127.4 276 127.7C273.6 127.9 271.1 128 268.7 127.8C266.3 127.7 263.9 127.3 261.5 126.9C259.1 126.4 256.8 125.7 254.5 124.8C245.4 121.4 237.5 115.2 231.7 107.5C228.8 103.6 226.5 99.3 224.9 94.7C223.3 90.1 222.5 85.2 222.6 80.3C222.8 70.6 226.4 61 232.6 53.6C238.7 46.1 247.4 40.8 256.9 38.8C266.3 36.8 276.4 38.3 284.9 43C293.3 47.7 299.8 55.8 302.2 65.1L302.6 66.8C302.7 67.4 302.8 68 302.9 68.6C303.1 69.8 303.2 71 303.3 72.2C303.4 73.4 303.3 74.6 303.4 75.8L303.3 77.6C303.3 78.2 303.2 78.8 303.1 79.4C302.4 84.1 300.6 88.7 297.9 92.6C296.6 94.6 295 96.4 293.2 98C292.3 98.8 291.4 99.6 290.4 100.2C289.9 100.5 289.4 100.9 288.9 101.2L287.4 102.1C286.9 102.4 286.4 102.7 285.8 102.9L284.2 103.7L282.5 104.3C282 104.5 281.4 104.7 280.8 104.9L279.1 105.4C278.5 105.6 277.9 105.6 277.4 105.7C276.2 106 275.1 106 273.9 106.1C271.5 106.2 269.2 106.1 266.9 105.6C265.7 105.4 264.6 105 263.5 104.7C262.9 104.5 262.4 104.3 261.9 104.1C261.4 103.9 260.8 103.7 260.3 103.4L258.7 102.6L257.2 101.7C256.7 101.4 256.2 101 255.8 100.7C255.3 100.3 254.9 100 254.4 99.6C253.6 98.8 252.7 98 251.9 97.1C251.5 96.7 251.1 96.2 250.8 95.8L249.8 94.4C249.4 93.9 249.2 93.4 248.9 92.9C248.6 92.4 248.3 91.9 248.1 91.4C247.6 90.3 247.1 89.3 246.7 88.2C245.9 86 245.4 83.7 245.2 81.4C244.7 76.8 245.6 72.1 247.5 67.9C245.7 72.1 245 76.8 245.6 81.3C245.9 83.6 246.5 85.8 247.3 87.9C247.7 89 248.2 90 248.7 91C248.9 91.5 249.3 92 249.6 92.5C249.9 93 250.2 93.5 250.5 93.9C251.8 95.7 253.4 97.4 255.1 98.8C255.5 99.2 256 99.5 256.4 99.8C256.8 100.1 257.3 100.5 257.8 100.7L259.2 101.6L260.7 102.3C261.2 102.6 261.7 102.8 262.2 102.9C262.7 103.1 263.2 103.3 263.8 103.5C264.9 103.8 266 104.1 267.1 104.3C269.3 104.7 271.5 104.8 273.8 104.6C282.7 103.8 291.2 98.9 295.9 91.4C298.3 87.7 299.8 83.4 300.4 79.1C300.5 78.6 300.5 78 300.6 77.5L300.7 75.9C300.6 74.8 300.7 73.7 300.6 72.6C300.5 71.5 300.4 70.4 300.1 69.3C300 68.8 299.9 68.2 299.8 67.7L299.4 66.1C297 57.6 290.9 50.4 283.2 46.2C275.5 42 266.2 40.9 257.7 42.8C249.2 44.7 241.4 49.6 236 56.4C230.5 63.2 227.4 71.8 227.4 80.4C227.4 84.7 228.1 89 229.6 93.1C231.1 97.2 233.2 101 235.8 104.5C241.1 111.4 248.3 116.9 256.4 119.9C258.4 120.7 260.5 121.2 262.6 121.7C264.7 122.1 266.9 122.4 269 122.5C271.2 122.6 273.3 122.5 275.5 122.4C277.7 122.1 279.8 121.8 281.9 121.3C290.4 119.3 298.2 114.9 304.8 109.1C308.1 106.2 311 102.9 313.6 99.4C316.1 95.8 318.2 92 319.8 87.9C322.8 79.8 324.1 70.9 323.3 62.2L322.9 58.9L322.7 57.3L322.3 55.7L321.6 52.5C321.3 51.4 321 50.4 320.6 49.4C320 47.3 319.1 45.3 318.3 43.3C317.9 42.3 317.3 41.3 316.8 40.4C316.3 39.4 315.9 38.4 315.2 37.5C310.7 30 304.7 23.3 297.4 18.5L294.7 16.7C293.8 16.1 292.8 15.7 291.8 15.1C289.9 14 287.8 13.2 285.8 12.3L284.3 11.7L282.7 11.2L279.6 10.1C278.6 9.70001 277.5 9.50001 276.4 9.20001C275.3 8.90001 274.3 8.60001 273.2 8.40001C264.5 6.70001 255.6 6.40001 246.7 7.50001C237.8 8.50001 229.1 10.8 220.7 14C212.3 17.2 204.3 21.3 196.5 26C181.1 35.5 167.1 47.3 153.5 59.6C139.9 71.9 126.5 84.6 111.8 95.9C97.2 107.3 81.3 117.3 63.7 123.7C54.9 126.8 45.5 128.8 36 128.3C33.6 128.2 31.3 127.8 28.9 127.3C26.6 126.8 24.3 126.2 22.1 125.2C21 124.8 19.9 124.3 18.8 123.8C17.7 123.2 16.7 122.7 15.7 122.1C13.6 120.9 11.7 119.4 10 117.7C3 111.1 -0.699995 101 1.10001 91.5C1.50001 89.1 2.4 86.8 3.50001 84.7C4.60001 82.6 6.1 80.6 7.8 79C11.2 75.7 15.8 73.5 20.6 73C25.3 72.6 30.3 73.8 34.1 76.7C36 78.1 37.6 80 38.7 82C39.9 84 40.6 86.4 40.8 88.7C41.1 93.4 39 98.2 35.3 101.1C33.5 102.6 31.3 103.6 29.1 104.1C26.9 104.2 24.6 104 22.4 103.4Z" fill="#4E9F9A" fill-opacity="0.65"/>
</svg>
