<svg><path d="M71.1,297.6c2.9,2.2,5.8,4.3,9,6c3.2,1.7,6.4,3.3,9.8,4.4c0.8,0.3,1.7,0.6,2.5,0.9c0.9,0.3,1.7,0.6,2.6,0.8&#10;&#9;&#9;&#9;c1.7,0.5,3.5,0.9,5.2,1.3c1.7,0.4,3.5,0.7,5.3,0.9c0.9,0.1,1.8,0.2,2.7,0.3c0.9,0.1,1.8,0.2,2.7,0.3c7.1,0.6,14.3,0.3,21.3-0.8&#10;&#9;&#9;&#9;c7.1-1,14-2.9,20.7-5.2c13.5-4.7,26.2-11.4,38.4-18.9c12.3-7.5,24.2-15.6,36.6-23.3c6.2-3.8,12.5-7.5,19-11&#10;&#9;&#9;&#9;c6.5-3.4,13.2-6.5,20.1-9.1c6.9-2.6,14.1-4.8,21.5-6.1c7.4-1.3,15.1-1.8,22.7-0.8c1,0.1,1.9,0.3,2.9,0.5l2.9,0.6&#10;&#9;&#9;&#9;c0.9,0.2,1.9,0.5,2.8,0.8c0.9,0.3,1.9,0.5,2.8,0.9c3.6,1.4,7.2,3.1,10.5,5.3c3.3,2.1,6.2,4.7,9,7.5l1.9,2.2c0.3,0.4,0.7,0.7,1,1.1&#10;&#9;&#9;&#9;l0.9,1.2c0.6,0.8,1.2,1.6,1.7,2.4l1.5,2.5c0.5,0.8,1,1.7,1.4,2.6c0.4,0.9,0.9,1.7,1.3,2.6c0.7,1.8,1.5,3.6,2,5.5&#10;&#9;&#9;&#9;c1.3,3.7,1.9,7.6,2.2,11.5c0.5,7.8-0.6,15.8-3.6,23l-1.2,2.7l-1.4,2.6c-0.9,1.8-2.1,3.3-3.2,5c-0.6,0.8-1.2,1.5-1.8,2.3&#10;&#9;&#9;&#9;c-0.6,0.7-1.2,1.6-1.9,2.2c-1.4,1.4-2.7,2.8-4.2,4.1c-2.9,2.6-6.3,4.7-9.7,6.6l-2.7,1.3c-0.4,0.2-0.9,0.4-1.3,0.6l-1.4,0.5l-2.8,1&#10;&#9;&#9;&#9;l-2.8,0.8c-7.6,2-15.8,1.9-23.4-0.1c-1-0.2-1.9-0.5-2.8-0.9c-0.9-0.3-1.9-0.6-2.8-1c-1.8-0.9-3.6-1.6-5.3-2.7&#10;&#9;&#9;&#9;c-3.5-1.9-6.5-4.5-9.3-7.3c-1.3-1.5-2.7-2.9-3.8-4.5l-0.9-1.2l-0.4-0.6l-0.4-0.6l-1.5-2.5c-1.8-3.5-3.4-7.1-4.3-11l-0.4-1.4&#10;&#9;&#9;&#9;c-0.1-0.5-0.2-1-0.2-1.5l-0.4-2.9c-0.1-1-0.1-2-0.1-3l0-1.5l0.1-1.5c0.1-1,0.1-2,0.3-3l0.6-2.9c0.1-0.5,0.2-1,0.3-1.5l0.4-1.4&#10;&#9;&#9;&#9;l0.9-2.8c2.9-7.4,7.7-13.9,14.1-18.6c3.2-2.3,6.8-4.1,10.6-5.3c3.8-1.2,7.8-1.6,11.8-1.4c7.9,0.4,15.5,3.1,21.8,8&#10;&#9;&#9;&#9;c6.2,4.9,10.7,11.9,12.3,19.6c0.8,3.9,0.9,7.9,0.1,11.8c-0.7,3.9-2.3,7.6-4.5,10.8c-2.2,3.2-5.1,6.1-8.5,8.1&#10;&#9;&#9;&#9;c-3.4,2-7.3,3.3-11.2,3.5c-7.9,0.4-15.8-3.6-20-10.2c-2.2-3.2-3.3-7.2-3.2-11.1c0-3.9,1.5-7.7,3.8-10.8c2.3-3.1,5.5-5.4,9.1-6.7&#10;&#9;&#9;&#9;c3.6-1.3,7.7-1.2,11.1,0.5c3.4,1.6,6.1,4.5,7.4,8.1c1.3,3.5,1,7.4-0.6,10.7c1.4-3.4,1.4-7.2,0-10.5c-1.3-3.3-4.1-5.8-7.3-7.2&#10;&#9;&#9;&#9;c-3.2-1.4-6.9-1.2-10,0c-3.2,1.3-6,3.6-7.9,6.4c-1.9,2.8-3,6.1-2.9,9.5c0.1,3.3,1.1,6.6,3.1,9.3c3.8,5.5,10.7,8.6,17.2,8&#10;&#9;&#9;&#9;c6.6-0.5,12.6-4.6,16.1-10.1c3.6-5.5,4.7-12.5,3.1-18.9c-1.5-6.4-5.4-12.2-10.7-16.2c-5.3-3.9-11.9-6.1-18.5-6.3&#10;&#9;&#9;&#9;c-3.3-0.1-6.6,0.4-9.6,1.4c-3.1,1-6,2.6-8.6,4.5c-5.2,3.9-9.3,9.5-11.6,15.6l-0.7,2.3l-0.4,1.2c-0.1,0.4-0.1,0.8-0.2,1.2l-0.4,2.4&#10;&#9;&#9;&#9;l-0.2,2.4l-0.1,1.2l0.1,1.2l0.1,2.4l0.4,2.4c0.1,0.4,0.1,0.8,0.2,1.2l0.3,1.2c0.7,3.2,2.1,6.2,3.7,9.1l1.3,2.1l0.3,0.5l0.4,0.5&#10;&#9;&#9;&#9;l0.7,1c0.9,1.4,2.1,2.5,3.2,3.7c2.4,2.3,4.9,4.4,7.8,6c1.4,0.9,2.9,1.5,4.4,2.2c0.7,0.3,1.5,0.5,2.3,0.8c0.8,0.3,1.5,0.6,2.3,0.7&#10;&#9;&#9;&#9;c6.3,1.6,13.1,1.7,19.5,0l2.4-0.6l2.3-0.9l1.2-0.4c0.4-0.2,0.7-0.4,1.1-0.5l2.2-1.1c2.9-1.6,5.7-3.4,8.2-5.6&#10;&#9;&#9;&#9;c1.3-1,2.4-2.3,3.6-3.5c0.6-0.6,1.1-1.3,1.6-1.9c0.5-0.7,1.1-1.3,1.5-2c0.9-1.4,1.9-2.7,2.6-4.2l1.2-2.2l1-2.3&#10;&#9;&#9;&#9;c2.6-6.1,3.5-12.8,3.2-19.4c-0.3-3.3-0.8-6.6-1.9-9.7c-0.4-1.6-1.1-3.1-1.7-4.7c-0.3-0.8-0.7-1.5-1.1-2.2&#10;&#9;&#9;&#9;c-0.4-0.7-0.7-1.5-1.2-2.2l-1.3-2.1c-0.5-0.7-1-1.3-1.5-2l-0.7-1c-0.2-0.3-0.5-0.6-0.8-0.9l-1.6-1.9c-2.3-2.3-4.8-4.6-7.6-6.4&#10;&#9;&#9;&#9;c-5.5-3.7-11.9-6-18.6-6.9c-6.7-0.9-13.6-0.6-20.5,0.5c-6.9,1.1-13.6,3.1-20.3,5.5c-13.3,4.8-26,11.5-38.3,18.8&#10;&#9;&#9;&#9;c-12.4,7.3-24.5,15.3-37.2,22.5c-12.6,7.2-25.8,13.8-39.9,18.1c-7,2.1-14.2,3.7-21.5,4.5c-7.3,0.8-14.7,0.8-22-0.1&#10;&#9;&#9;&#9;c-0.9-0.1-1.8-0.2-2.7-0.4c-0.9-0.2-1.8-0.3-2.7-0.5c-1.8-0.4-3.6-0.7-5.3-1.2c-3.5-0.9-7-2.1-10.4-3.5c-3.4-1.4-6.6-3.1-9.7-5&#10;&#9;&#9;&#9;C76.7,302.2,73.8,300,71.1,297.6z" transform="matrix(1, 0, 0, 1, 0, 0)"/>
<g transform="matrix(1, 0, 0, 1, 0, 0)">
    <path d="M523.2,316.5c-2-3.2-1.9-7.6,0.2-10.8c1-1.6,2.6-2.9,4.4-3.6c1.8-0.7,3.8-0.9,5.7-0.7c1.9,0.3,3.8,1,5.3,2.2&#10;&#9;&#9;&#9;c0.8,0.6,1.5,1.3,2.1,2.1c0.6,0.8,1.1,1.6,1.4,2.6c1.5,3.6,1.2,7.9-0.8,11.4c-2.1,3.4-5.7,5.7-9.6,6.3c-3.9,0.7-8.1-0.5-11.2-3&#10;&#9;&#9;&#9;c-3.1-2.5-5.3-6-6.2-9.9c-0.5-1.9-0.6-4-0.4-5.9c0.2-2,0.7-3.9,1.3-5.8c1.4-3.7,3.5-7,5.8-10.1c2.4-3,5.1-5.8,7.9-8.4&#10;&#9;&#9;&#9;c5.5-5.2,11.4-10.1,17.5-14.6c6.1-4.5,12.5-8.7,19.2-12.3c6.7-3.7,13.6-6.9,20.8-9.5c14.4-5.2,29.8-8.2,45.2-7.4&#10;&#9;&#9;&#9;c3.9,0.1,7.7,0.6,11.5,1.2c1.9,0.4,3.8,0.7,5.7,1.1c1.9,0.5,3.8,0.9,5.6,1.5l2.8,0.8c0.9,0.3,1.8,0.6,2.7,1c0.9,0.3,1.8,0.6,2.7,1&#10;&#9;&#9;&#9;l2.7,1.1c0.9,0.4,1.8,0.7,2.7,1.2c0.9,0.4,1.8,0.9,2.7,1.4l1.3,0.8l1.3,0.9c0.9,0.6,1.6,1.2,2.4,1.9c3.1,2.6,5.8,5.9,7.7,9.6&#10;&#9;&#9;&#9;c1.9,3.7,2.9,8,2.8,12.2c0,1.1-0.1,2.1-0.2,3.2c-0.2,1-0.4,2.1-0.6,3.1c-0.3,1-0.6,2-0.9,3c-0.4,1-0.8,1.9-1.3,2.9&#10;&#9;&#9;&#9;c-1.8,3.8-4.7,7.1-8.1,9.6c-3.4,2.5-7.2,4.2-11.1,5.3c-3.9,1.1-7.8,1.8-11.7,2.1c-7.8,0.6-15.6,0.2-23.1-0.5&#10;&#9;&#9;&#9;c-15.2-1.4-30.3-4.2-45.1-8.3c-14.7-4.1-29.1-9.4-43-15.7c-14-6.5-26.9-14.5-39.9-22.2c-12.9-7.6-26-14.9-39.9-19.7&#10;&#9;&#9;&#9;c-6.9-2.4-14.1-4.1-21.3-5.1c-7.2-1-14.5-1.2-21.7-0.5c-3.6,0.4-7.1,1-10.5,1.9c-1.7,0.5-3.4,0.9-4.9,1.6c-0.8,0.3-1.5,0.7-2.3,1&#10;&#9;&#9;&#9;c-0.7,0.4-1.5,0.8-2.2,1.2c-5.8,3.4-10.4,8.8-12.3,15c-0.5,1.5-0.8,3.1-1,4.7c-0.2,1.6-0.1,3.2,0.1,4.8c0.2,1.6,0.6,3.2,1.1,4.7&#10;&#9;&#9;&#9;c0.5,1.5,1.2,3,2.1,4.4c1.7,2.8,3.9,5.5,6.5,7.6c2.6,2.2,5.4,4,8.5,5.4c3.1,1.4,6.5,2.3,9.9,2.9c1.7,0.3,3.5,0.5,5.2,0.6&#10;&#9;&#9;&#9;c1.8,0.1,3.5,0.2,5.3,0.1c7.1-0.1,14.3-1.3,21.4-3.3c1.8-0.5,3.6-0.9,5.3-1.4l5.2-1.7l2.6-0.9c0.9-0.3,1.7-0.7,2.6-1l5.2-2&#10;&#9;&#9;&#9;c1.7-0.7,3.4-1.5,5.1-2.2c1.7-0.8,3.4-1.5,5-2.3c3.3-1.7,6.7-3.3,9.9-5.1c13.1-7.1,25.8-15.2,38.5-23.3&#10;&#9;&#9;&#9;c12.7-8.1,25.5-16.3,39-23.6c13.5-7.2,27.7-13.3,42.5-17.6c14.8-4.4,30-7,45.5-7.6c7.8-0.2,15.8,0.3,23.6,2.8&#10;&#9;&#9;&#9;c3.9,1.3,7.6,3.1,11,5.5c3.4,2.4,6.5,5.3,8.9,8.9c1.2,1.8,2.2,3.6,3,5.7l0.6,1.5c0.2,0.5,0.3,1,0.4,1.5l0.4,1.6l0.3,1.6&#10;&#9;&#9;&#9;c0.7,4.2,0.4,8.5-0.6,12.6c-1.9,8.1-6.5,15.4-12.7,20.8c-6.3,5.4-13.8,8.7-21.5,10.6c-7.7,1.9-15.6,2.4-23.4,2.1&#10;&#9;&#9;&#9;c-15.5-0.6-30.7-4.1-45.1-9.2c-14.5-5-28.2-11.5-41.8-18.1c-13.6-6.6-27.1-13.3-41-19c-13.9-5.6-28.2-10.1-43-12.1&#10;&#9;&#9;&#9;c-7.4-1-14.8-1.5-22.2-1.1c-7.4,0.4-14.8,1.6-21.6,4.1c-6.8,2.6-13.2,6.7-17.7,12.4c-2.2,2.9-4.2,6-5.3,9.4&#10;&#9;&#9;&#9;c-1.2,3.4-1.6,7.1-1.3,10.7c0.4,3.6,1.5,7.1,3.5,10.1c1.9,3,4.8,5.5,8.1,6.9c3.3,1.5,7,2,10.6,1.3c3.6-0.6,6.9-2.5,9.2-5.3&#10;&#9;&#9;&#9;c2.2-2.8,3.3-6.6,3-10.2c-0.3-3.6-2-7.3-4.9-9.5c-2.9-2.3-7-3.1-10.4-1.5c-0.8,0.4-1.7,0.9-2.3,1.5c-0.7,0.6-1.3,1.3-1.7,2.2&#10;&#9;&#9;&#9;c-0.9,1.6-1,3.6-0.6,5.5c-0.5-1.8-0.4-3.8,0.4-5.5c0.4-0.9,1-1.6,1.7-2.3c0.7-0.7,1.5-1.2,2.4-1.6c3.5-1.7,7.9-1,10.9,1.3&#10;&#9;&#9;&#9;c3.2,2.3,5,6.1,5.5,9.9c0.5,3.9-0.6,7.9-2.9,11.1c-2.3,3.2-6,5.3-9.8,6c-3.8,0.8-7.9,0.4-11.6-1.2c-3.6-1.5-6.8-4.1-9-7.4&#10;&#9;&#9;&#9;c-2.2-3.3-3.6-7.1-4-11c-0.4-3.9-0.1-7.9,1.1-11.7c1.1-3.8,3.2-7.2,5.5-10.3c2.4-3.1,5.2-5.9,8.4-8.1c3.2-2.3,6.7-4.1,10.3-5.5&#10;&#9;&#9;&#9;c7.2-2.9,14.9-4.2,22.6-4.8c7.7-0.5,15.4-0.2,22.9,0.7c7.6,0.9,15.1,2.5,22.5,4.5c7.4,2,14.6,4.5,21.7,7.2&#10;&#9;&#9;&#9;c14.2,5.5,27.9,12.1,41.5,18.5c13.7,6.4,27.3,12.6,41.4,17.4c14.1,4.8,28.7,8,43.4,8.4c7.3,0.2,14.6-0.3,21.6-2.1&#10;&#9;&#9;&#9;c6.9-1.8,13.5-4.8,18.7-9.4c5.1-4.5,8.9-10.7,10.4-17.3c0.8-3.3,0.9-6.7,0.4-9.9l-0.2-1.2l-0.3-1.2c-0.1-0.4-0.2-0.8-0.3-1.2&#10;&#9;&#9;&#9;l-0.4-1.1c-0.6-1.5-1.4-3-2.3-4.3c-3.7-5.4-9.8-9.4-16.3-11.5c-6.6-2.1-13.9-2.6-21.2-2.3c-14.7,0.6-29.4,3.3-43.6,7.6&#10;&#9;&#9;&#9;c-14.2,4.3-27.9,10.1-41,17.2c-13.1,7.1-25.8,15.2-38.4,23.3c-12.7,8.2-25.5,16.4-38.9,23.7c-3.3,1.9-6.8,3.5-10.2,5.3&#10;&#9;&#9;&#9;c-1.7,0.9-3.5,1.6-5.2,2.4c-1.8,0.8-3.5,1.6-5.3,2.3L464,287c-0.9,0.3-1.8,0.7-2.7,1l-2.8,0.9l-5.5,1.8c-1.9,0.5-3.7,1-5.6,1.5&#10;&#9;&#9;&#9;c-7.5,2.1-15.3,3.4-23.3,3.5c-2,0.1-4,0-6-0.1c-2-0.2-4-0.4-6-0.8c-4-0.7-8-1.8-11.8-3.5c-3.8-1.7-7.3-4-10.5-6.7&#10;&#9;&#9;&#9;c-3.2-2.7-5.9-5.9-8.1-9.6c-1.1-1.8-2-3.8-2.7-5.8c-0.7-2-1.2-4.2-1.5-6.3c-0.6-4.3-0.1-8.7,1.2-12.8c2.6-8.3,8.6-15,15.8-19.3&#10;&#9;&#9;&#9;c0.9-0.6,1.8-1,2.7-1.5c1-0.4,1.9-0.9,2.9-1.3c1.9-0.8,3.9-1.4,5.8-1.9c3.9-1,7.8-1.7,11.7-2.1c7.9-0.7,15.8-0.5,23.5,0.6&#10;&#9;&#9;&#9;c7.7,1.1,15.3,2.9,22.7,5.5c14.7,5.2,28.1,12.8,41.1,20.6c13,7.8,25.7,15.8,39.1,22.1c13.5,6.3,27.5,11.5,41.9,15.6&#10;&#9;&#9;&#9;c14.3,4.1,29,7,43.8,8.5c7.4,0.8,14.8,1.2,22.1,0.7c3.6-0.3,7.2-0.8,10.6-1.8c3.4-1,6.6-2.3,9.3-4.3c2.7-2,4.9-4.5,6.4-7.5&#10;&#9;&#9;&#9;c1.5-3,2.5-6.3,2.5-9.7c0.1-3.3-0.7-6.6-2.1-9.7c-1.4-3.1-3.6-5.8-6.2-8c-0.7-0.6-1.3-1.1-2-1.6l-1.1-0.8l-1.1-0.7&#10;&#9;&#9;&#9;c-0.7-0.5-1.5-0.9-2.3-1.3c-0.7-0.4-1.6-0.8-2.5-1.1l-2.5-1.1c-0.9-0.3-1.7-0.7-2.6-1c-0.9-0.3-1.7-0.7-2.6-0.9l-2.6-0.8&#10;&#9;&#9;&#9;c-1.7-0.6-3.5-1-5.3-1.5c-1.8-0.4-3.6-0.8-5.4-1.2c-3.6-0.6-7.3-1.1-11-1.3c-14.7-1-29.6,1.6-43.7,6.5c-7,2.5-13.9,5.5-20.5,8.9&#10;&#9;&#9;&#9;c-6.6,3.5-13,7.5-19.1,11.8c-6.1,4.3-12,9-17.5,14.1c-2.8,2.5-5.4,5.1-7.8,7.9c-2.3,2.8-4.4,5.9-5.7,9.3c-0.6,1.7-1.1,3.4-1.3,5.2&#10;&#9;&#9;&#9;c-0.2,1.8-0.1,3.6,0.3,5.3c0.7,3.5,2.6,6.8,5.4,9c2.7,2.3,6.4,3.4,9.9,2.8c3.5-0.5,6.9-2.5,8.9-5.5c1.9-3,2.3-7,1-10.4&#10;&#9;&#9;&#9;c-0.3-0.8-0.8-1.7-1.3-2.4c-0.5-0.7-1.2-1.4-1.9-2c-1.4-1.1-3.2-1.9-5-2.2c-1.8-0.3-3.7-0.2-5.4,0.5c-1.7,0.6-3.2,1.9-4.3,3.4&#10;&#9;&#9;&#9;C521.5,308.9,521.3,313.2,523.2,316.5z"/></svg>
