<svg width="286" height="90" viewBox="0 0 286 90" fill="none" xmlns="http://www.w3.org/2000/svg">
<path d="M2.00001 11.4C1.30001 18.8 2.10002 26.2 4.20002 33.1C6.30002 40 9.50002 46.6 13.7 52.4C17.9 58.2 23.1 63.3 28.8 67.4C29.5 67.9 30.2 68.5 31 68.9L33.3 70.3C34.8 71.3 36.4 72.1 37.9 72.9C38.7 73.3 39.5 73.7 40.3 74.1L42.7 75.2C43.5 75.6 44.3 75.9 45.2 76.2L47.7 77.1C54.4 79.4 61.4 80.8 68.5 81.5C75.6 82.1 82.7 81.9 89.8 81C104 79.2 117.8 74.7 130.6 68.3C143.5 62 155.6 53.8 167.3 45C173.2 40.6 179 36.1 184.8 31.6C190.6 27.1 196.5 22.5 202.7 18.3C208.9 14 215.3 10.1 222.3 6.99999C229.2 3.89999 236.6 1.59999 244.2 0.799988C251.8 -1.16527e-05 259.5 0.399989 266.7 2.49999C270.3 3.59999 273.8 4.99999 277 6.99999C280.2 8.89999 283.2 11.3 285.6 14C280 9.19999 273.2 6.09999 266.1 4.69999C259 3.29999 251.7 3.39999 244.7 4.69999C241.2 5.29999 237.7 6.19999 234.4 7.39999C231 8.59999 227.8 10.1 224.6 11.7C218.1 15 212 19 206.2 23.3C194.7 32.2 183.4 41.8 171.7 51C159.9 60.1 147.5 68.7 134 75.5C120.4 82.2 105.7 86.9 90.5 88.5C82.9 89.3 75.2 89.4 67.6 88.5C60 87.7 52.5 85.8 45.4 83C38.3 80.2 31.5 76.4 25.6 71.6C19.7 66.8 14.5 61 10.4 54.6C6.4 48.2 3.4 41.1 1.9 33.7C1.7 32.8 1.5 31.9 1.4 30.9L1.10001 28.1C0.800014 26.2 0.899996 24.4 0.799996 22.5C0.699996 21.6 0.800002 20.6 0.900002 19.7L1.10001 16.9C1.30001 15.1 1.70001 13.3 2.00001 11.4Z" fill="#E37F7A"/>
</svg>
